<svg xmlns="http://www.w3.org/2000/svg" xmlns:xlink="http://www.w3.org/1999/xlink" width="500" zoomAndPan="magnify" viewBox="0 0 375 374.999991" height="500" preserveAspectRatio="xMidYMid meet" version="1.0">
  <defs>
    <clipPath id="8bbda63a17"><path d="M 20.652344 12.476562 L 354.347656 12.476562 L 354.347656 363 L 20.652344 363 Z M 20.652344 12.476562 " clip-rule="nonzero"/></clipPath>
    <clipPath id="f74db0d721"><path d="M 58.152344 12.476562 L 316.847656 12.476562 C 326.792969 12.476562 336.332031 16.425781 343.363281 23.460938 C 350.398438 30.492188 354.347656 40.03125 354.347656 49.976562 L 354.347656 325.023438 C 354.347656 334.96875 350.398438 344.507812 343.363281 351.539062 C 336.332031 358.574219 326.792969 362.523438 316.847656 362.523438 L 58.152344 362.523438 C 48.207031 362.523438 38.667969 358.574219 31.636719 351.539062 C 24.601562 344.507812 20.652344 334.96875 20.652344 325.023438 L 20.652344 49.976562 C 20.652344 40.03125 24.601562 30.492188 31.636719 23.460938 C 38.667969 16.425781 48.207031 12.476562 58.152344 12.476562 Z M 58.152344 12.476562 " clip-rule="nonzero"/></clipPath>
    <clipPath id="d8cae392e6"><path d="M 138 145 L 148.308594 145 L 148.308594 155 L 138 155 Z M 138 145 " clip-rule="nonzero"/></clipPath>
    <clipPath id="24ebad04c5"><path d="M 143.113281 145.113281 C 140.402344 145.113281 138.195312 147.320312 138.195312 150.039062 C 138.195312 152.757812 140.402344 154.957031 143.113281 154.957031 C 145.824219 154.957031 148.042969 152.75 148.042969 150.039062 C 148.042969 147.328125 145.835938 145.113281 143.113281 145.113281 " clip-rule="nonzero"/></clipPath>
    <clipPath id="588ad707a4"><path d="M 138 163 L 148.308594 163 L 148.308594 173.421875 L 138 173.421875 Z M 138 163 " clip-rule="nonzero"/></clipPath>
    <clipPath id="41159c4889"><path d="M 143.113281 163.429688 C 140.402344 163.429688 138.195312 165.636719 138.195312 168.347656 C 138.195312 171.058594 140.402344 173.273438 143.113281 173.273438 C 145.824219 173.273438 148.042969 171.066406 148.042969 168.347656 C 148.042969 165.625 145.835938 163.429688 143.113281 163.429688 " clip-rule="nonzero"/></clipPath>
    <clipPath id="7c3c9bc22e"><path d="M 226 145 L 237 145 L 237 155 L 226 155 Z M 226 145 " clip-rule="nonzero"/></clipPath>
    <clipPath id="ceac66e3ff"><path d="M 231.40625 154.957031 C 234.117188 154.957031 236.324219 152.75 236.324219 150.039062 C 236.324219 147.328125 234.117188 145.113281 231.40625 145.113281 C 228.695312 145.113281 226.480469 147.320312 226.480469 150.039062 C 226.480469 152.757812 228.6875 154.957031 231.40625 154.957031 " clip-rule="nonzero"/></clipPath>
    <clipPath id="b6d0a0ad6a"><path d="M 226 163 L 237 163 L 237 173.421875 L 226 173.421875 Z M 226 163 " clip-rule="nonzero"/></clipPath>
    <clipPath id="9fcdec8874"><path d="M 231.40625 163.429688 C 228.695312 163.429688 226.480469 165.636719 226.480469 168.347656 C 226.480469 171.058594 228.6875 173.273438 231.40625 173.273438 C 234.125 173.273438 236.324219 171.066406 236.324219 168.347656 C 236.324219 165.625 234.117188 163.429688 231.40625 163.429688 " clip-rule="nonzero"/></clipPath>
    <clipPath id="5e4ccd5ee1"><path d="M 182.273438 145 L 192.726562 145 L 192.726562 155 L 182.273438 155 Z M 182.273438 145 " clip-rule="nonzero"/></clipPath>
    <clipPath id="c8a8f46158"><path d="M 187.265625 145.113281 C 184.554688 145.113281 182.339844 147.320312 182.339844 150.039062 C 182.339844 152.757812 184.546875 154.957031 187.265625 154.957031 C 189.984375 154.957031 192.183594 152.75 192.183594 150.039062 C 192.183594 147.328125 189.976562 145.113281 187.265625 145.113281 " clip-rule="nonzero"/></clipPath>
    <clipPath id="233ef4c570"><path d="M 182.273438 163 L 192.726562 163 L 192.726562 173.421875 L 182.273438 173.421875 Z M 182.273438 163 " clip-rule="nonzero"/></clipPath>
    <clipPath id="2304d649cd"><path d="M 187.265625 163.429688 C 184.554688 163.429688 182.339844 165.636719 182.339844 168.347656 C 182.339844 171.058594 184.546875 173.273438 187.265625 173.273438 C 189.984375 173.273438 192.183594 171.066406 192.183594 168.347656 C 192.183594 165.625 189.976562 163.429688 187.265625 163.429688 " clip-rule="nonzero"/></clipPath>
    <clipPath id="3b1b3ad28d"><path d="M 182.273438 126.390625 L 192.726562 126.390625 L 192.726562 136.84375 L 182.273438 136.84375 Z M 182.273438 126.390625 " clip-rule="nonzero"/></clipPath>
    <clipPath id="3c452030d9"><path d="M 187.265625 126.648438 C 184.554688 126.648438 182.339844 128.855469 182.339844 131.578125 C 182.339844 134.296875 184.546875 136.496094 187.265625 136.496094 C 189.984375 136.496094 192.183594 134.289062 192.183594 131.578125 C 192.183594 128.867188 189.976562 126.648438 187.265625 126.648438 " clip-rule="nonzero"/></clipPath>
    <clipPath id="ddeeafacfc"><path d="M 182.273438 108.101562 L 192.726562 108.101562 L 192.726562 118.554688 L 182.273438 118.554688 Z M 182.273438 108.101562 " clip-rule="nonzero"/></clipPath>
    <clipPath id="5e331bcd7c"><path d="M 187.265625 118.03125 C 189.976562 118.03125 192.183594 115.824219 192.183594 113.113281 C 192.183594 110.402344 189.976562 108.1875 187.265625 108.1875 C 184.554688 108.1875 182.339844 110.394531 182.339844 113.113281 C 182.339844 115.835938 184.546875 118.03125 187.265625 118.03125 " clip-rule="nonzero"/></clipPath>
    <clipPath id="35b2ce07f6"><path d="M 160 201.289062 L 170.953125 201.289062 L 170.953125 212 L 160 212 Z M 160 201.289062 " clip-rule="nonzero"/></clipPath>
    <clipPath id="37f8e7b98a"><path d="M 165.257812 201.957031 C 162.546875 201.957031 160.339844 204.164062 160.339844 206.875 C 160.339844 209.585938 162.546875 211.800781 165.257812 211.800781 C 167.96875 211.800781 170.175781 209.59375 170.175781 206.875 C 170.175781 204.152344 167.96875 201.957031 165.257812 201.957031 " clip-rule="nonzero"/></clipPath>
    <clipPath id="dd10119c5a"><path d="M 80.378906 26.238281 L 294.621094 26.238281 L 294.621094 209 L 80.378906 209 Z M 80.378906 26.238281 " clip-rule="nonzero"/></clipPath>
    <clipPath id="ded7d160dd"><path d="M 187.503906 26.460938 C 128.554688 26.460938 80.601562 74.414062 80.601562 133.363281 C 80.601562 162.660156 92.453125 189.234375 111.601562 208.558594 L 118.121094 202.039062 C 100.640625 184.382812 89.824219 160.113281 89.824219 133.363281 C 89.824219 79.503906 133.636719 35.695312 187.496094 35.695312 C 241.351562 35.695312 285.164062 79.503906 285.164062 133.363281 C 285.164062 160.214844 274.265625 184.574219 256.664062 202.25 L 263.183594 208.769531 C 282.453125 189.429688 294.386719 162.761719 294.386719 133.363281 C 294.394531 74.414062 246.445312 26.460938 187.503906 26.460938 " clip-rule="nonzero"/></clipPath>
    <clipPath id="cc8a25a0fa"><path d="M 103.023438 49 L 271.976562 49 L 271.976562 166 L 103.023438 166 Z M 103.023438 49 " clip-rule="nonzero"/></clipPath>
    <clipPath id="29171ec6bb"><path d="M 187.503906 49.675781 C 141.367188 49.675781 103.828125 87.214844 103.828125 133.355469 C 103.828125 144.792969 106.136719 155.691406 110.300781 165.625 L 118.753906 161.90625 C 115.082031 153.105469 113.058594 143.464844 113.058594 133.34375 C 113.058594 92.289062 146.457031 58.898438 187.503906 58.898438 C 228.550781 58.898438 261.949219 92.296875 261.949219 133.34375 C 261.949219 143.527344 259.886719 153.246094 256.167969 162.101562 L 264.6875 165.671875 C 268.871094 155.726562 271.179688 144.800781 271.179688 133.355469 C 271.179688 87.214844 233.640625 49.675781 187.503906 49.675781 " clip-rule="nonzero"/></clipPath>
    <clipPath id="57b0258685"><path d="M 91.699219 181 L 148 181 L 148 347 L 91.699219 347 Z M 91.699219 181 " clip-rule="nonzero"/></clipPath>
    <clipPath id="0b6460dd5f"><path d="M 114.851562 330.882812 C 114.851562 334.65625 111.792969 337.703125 108.03125 337.703125 C 104.265625 337.703125 101.207031 334.65625 101.207031 330.882812 C 101.207031 327.109375 104.257812 324.058594 108.03125 324.058594 C 111.804688 324.058594 114.851562 327.109375 114.851562 330.882812 M 143.113281 181.25 C 140.585938 181.25 138.535156 183.300781 138.535156 185.828125 L 138.546875 185.910156 L 138.546875 215.042969 L 103.371094 250.21875 L 103.371094 315.523438 C 96.777344 317.519531 91.976562 323.636719 91.976562 330.882812 C 91.976562 339.746094 99.164062 346.933594 108.03125 346.933594 C 116.894531 346.933594 124.085938 339.746094 124.085938 330.882812 C 124.085938 323.519531 119.121094 317.335938 112.371094 315.441406 L 112.371094 253.964844 L 147.667969 218.667969 L 147.667969 186.257812 C 147.675781 186.121094 147.683594 185.976562 147.683594 185.835938 C 147.683594 183.308594 145.632812 181.257812 143.105469 181.257812 " clip-rule="nonzero"/></clipPath>
    <clipPath id="4e9db05111"><path d="M 122.183594 218 L 170 218 L 170 309.28125 L 122.183594 309.28125 Z M 122.183594 218 " clip-rule="nonzero"/></clipPath>
    <clipPath id="c777aeb145"><path d="M 145.359375 293.152344 C 145.359375 296.921875 142.300781 299.972656 138.535156 299.972656 C 134.773438 299.972656 131.714844 296.921875 131.714844 293.152344 C 131.714844 289.378906 134.761719 286.328125 138.535156 286.328125 C 142.308594 286.328125 145.359375 289.378906 145.359375 293.152344 M 169.894531 235.171875 L 169.894531 222.800781 L 169.835938 222.800781 L 169.835938 222.773438 C 169.835938 220.226562 167.785156 218.175781 165.257812 218.175781 C 162.730469 218.175781 160.679688 220.226562 160.679688 222.753906 L 160.6875 223.019531 L 160.699219 231.582031 L 134.230469 258.046875 L 134.230469 277.699219 C 127.453125 279.585938 122.480469 285.777344 122.480469 293.160156 C 122.480469 302.023438 129.671875 309.214844 138.535156 309.214844 C 147.402344 309.214844 154.589844 302.023438 154.589844 293.160156 C 154.589844 286.015625 149.917969 279.972656 143.472656 277.882812 L 143.472656 261.59375 Z M 169.894531 235.171875 " clip-rule="nonzero"/></clipPath>
    <clipPath id="2d613dd448"><path d="M 171 181 L 204 181 L 204 291.863281 L 171 291.863281 Z M 171 181 " clip-rule="nonzero"/></clipPath>
    <clipPath id="8fc0ccaaac"><path d="M 187.503906 282.316406 C 183.730469 282.316406 180.679688 279.257812 180.679688 275.492188 C 180.679688 271.730469 183.730469 268.671875 187.503906 268.671875 C 191.277344 268.671875 194.324219 271.722656 194.324219 275.492188 C 194.324219 279.265625 191.277344 282.316406 187.503906 282.316406 M 191.835938 260.042969 L 191.835938 185.984375 C 191.835938 185.929688 191.84375 185.882812 191.84375 185.828125 C 191.84375 183.300781 189.792969 181.25 187.265625 181.25 C 184.738281 181.25 182.6875 183.300781 182.6875 185.828125 L 182.695312 186.101562 L 182.703125 260.171875 C 176.183594 262.214844 171.449219 268.304688 171.449219 275.492188 C 171.449219 284.359375 178.636719 291.546875 187.503906 291.546875 C 196.367188 291.546875 203.558594 284.359375 203.558594 275.492188 C 203.558594 268.132812 198.59375 261.941406 191.835938 260.042969 " clip-rule="nonzero"/></clipPath>
    <clipPath id="107c6f673d"><path d="M 142.210938 76.75 L 251.945312 76.75 L 251.945312 349 L 142.210938 349 Z M 142.210938 76.75 " clip-rule="nonzero"/></clipPath>
    <clipPath id="f324f2209b"><path d="M 235.664062 339.304688 C 231.902344 339.304688 228.84375 336.246094 228.84375 332.484375 C 228.84375 328.71875 231.902344 325.660156 235.664062 325.660156 C 239.429688 325.660156 242.488281 328.710938 242.488281 332.484375 C 242.488281 336.257812 239.429688 339.304688 235.664062 339.304688 M 240.132812 317.070312 L 240.132812 262.921875 L 213.796875 236.574219 L 213.796875 137.363281 L 231.378906 137.382812 L 187.109375 76.785156 L 142.902344 137.28125 L 160.863281 137.28125 L 160.6875 191.957031 C 160.78125 194.402344 162.785156 196.351562 165.257812 196.351562 C 167.730469 196.351562 169.738281 194.402344 169.828125 191.957031 L 169.910156 128.316406 L 160.972656 128.316406 L 187.117188 92.234375 L 213.191406 128.617188 L 204.738281 128.617188 L 204.664062 137.355469 L 204.664062 240.199219 L 231.132812 266.664062 L 231.132812 317.089844 C 224.472656 319.050781 219.609375 325.195312 219.609375 332.484375 C 219.609375 341.347656 226.800781 348.539062 235.664062 348.539062 C 244.53125 348.539062 251.71875 341.347656 251.71875 332.484375 C 251.71875 325.167969 246.820312 319.011719 240.132812 317.070312 " clip-rule="nonzero"/></clipPath>
    <clipPath id="6a1ef1fdc0"><path d="M 226.691406 181 L 290.265625 181 L 290.265625 309.28125 L 226.691406 309.28125 Z M 226.691406 181 " clip-rule="nonzero"/></clipPath>
    <clipPath id="903397e027"><path d="M 274.585938 300.375 C 270.824219 300.375 267.761719 297.316406 267.761719 293.554688 C 267.761719 289.789062 270.824219 286.730469 274.585938 286.730469 C 278.351562 286.730469 281.410156 289.78125 281.410156 293.554688 C 281.410156 297.328125 278.351562 300.375 274.585938 300.375 M 279.15625 278.582031 L 279.15625 259.84375 L 235.957031 216.644531 L 235.957031 186.332031 C 235.976562 186.167969 235.984375 186.003906 235.984375 185.835938 C 235.984375 183.300781 233.933594 181.25 231.40625 181.25 C 228.878906 181.25 226.828125 183.308594 226.828125 185.835938 L 226.828125 220.273438 L 270.152344 263.597656 L 270.152344 278.554688 C 263.671875 280.46875 258.933594 286.457031 258.933594 293.554688 C 258.933594 302.199219 265.941406 309.203125 274.585938 309.203125 C 283.230469 309.203125 290.238281 302.199219 290.238281 293.554688 C 290.238281 286.5 285.566406 280.539062 279.148438 278.582031 " clip-rule="nonzero"/></clipPath>
  </defs>
  <g clip-path="url(#8bbda63a17)">
    <g clip-path="url(#f74db0d721)">
      <path fill="#ffffff" d="M 20.652344 12.476562 L 354.347656 12.476562 L 354.347656 363.117188 L 20.652344 363.117188 Z M 20.652344 12.476562 " fill-opacity="1" fill-rule="nonzero"/>
    </g>
  </g>
  <g clip-path="url(#d8cae392e6)">
    <g clip-path="url(#24ebad04c5)">
      <path fill="#6993ff" d="M 76.023438 21.882812 L 298.976562 21.882812 L 298.976562 352.828125 L 76.023438 352.828125 Z M 76.023438 21.882812 " fill-opacity="1" fill-rule="nonzero"/>
    </g>
  </g>
  <g clip-path="url(#588ad707a4)">
    <g clip-path="url(#41159c4889)">
      <path fill="#6993ff" d="M 76.023438 21.882812 L 298.976562 21.882812 L 298.976562 352.828125 L 76.023438 352.828125 Z M 76.023438 21.882812 " fill-opacity="1" fill-rule="nonzero"/>
    </g>
  </g>
  <g clip-path="url(#7c3c9bc22e)">
    <g clip-path="url(#ceac66e3ff)">
      <path fill="#6993ff" d="M 76.023438 21.882812 L 298.976562 21.882812 L 298.976562 352.828125 L 76.023438 352.828125 Z M 76.023438 21.882812 " fill-opacity="1" fill-rule="nonzero"/>
    </g>
  </g>
  <g clip-path="url(#b6d0a0ad6a)">
    <g clip-path="url(#9fcdec8874)">
      <path fill="#6993ff" d="M 76.023438 21.882812 L 298.976562 21.882812 L 298.976562 352.828125 L 76.023438 352.828125 Z M 76.023438 21.882812 " fill-opacity="1" fill-rule="nonzero"/>
    </g>
  </g>
  <g clip-path="url(#5e4ccd5ee1)">
    <g clip-path="url(#c8a8f46158)">
      <path fill="#6993ff" d="M 76.023438 21.882812 L 298.976562 21.882812 L 298.976562 352.828125 L 76.023438 352.828125 Z M 76.023438 21.882812 " fill-opacity="1" fill-rule="nonzero"/>
    </g>
  </g>
  <g clip-path="url(#233ef4c570)">
    <g clip-path="url(#2304d649cd)">
      <path fill="#6993ff" d="M 76.023438 21.882812 L 298.976562 21.882812 L 298.976562 352.828125 L 76.023438 352.828125 Z M 76.023438 21.882812 " fill-opacity="1" fill-rule="nonzero"/>
    </g>
  </g>
  <g clip-path="url(#3b1b3ad28d)">
    <g clip-path="url(#3c452030d9)">
      <path fill="#6993ff" d="M 76.023438 21.882812 L 298.976562 21.882812 L 298.976562 352.828125 L 76.023438 352.828125 Z M 76.023438 21.882812 " fill-opacity="1" fill-rule="nonzero"/>
    </g>
  </g>
  <g clip-path="url(#ddeeafacfc)">
    <g clip-path="url(#5e331bcd7c)">
      <path fill="#6993ff" d="M 76.023438 21.882812 L 298.976562 21.882812 L 298.976562 352.828125 L 76.023438 352.828125 Z M 76.023438 21.882812 " fill-opacity="1" fill-rule="nonzero"/>
    </g>
  </g>
  <g clip-path="url(#35b2ce07f6)">
    <g clip-path="url(#37f8e7b98a)">
      <path fill="#6993ff" d="M 76.023438 21.882812 L 298.976562 21.882812 L 298.976562 352.828125 L 76.023438 352.828125 Z M 76.023438 21.882812 " fill-opacity="1" fill-rule="nonzero"/>
    </g>
  </g>
  <g clip-path="url(#dd10119c5a)">
    <g clip-path="url(#ded7d160dd)">
      <path fill="#6993ff" d="M 76.023438 21.882812 L 298.976562 21.882812 L 298.976562 352.828125 L 76.023438 352.828125 Z M 76.023438 21.882812 " fill-opacity="1" fill-rule="nonzero"/>
    </g>
  </g>
  <g clip-path="url(#cc8a25a0fa)">
    <g clip-path="url(#29171ec6bb)">
      <path fill="#6993ff" d="M 76.023438 21.882812 L 298.976562 21.882812 L 298.976562 352.828125 L 76.023438 352.828125 Z M 76.023438 21.882812 " fill-opacity="1" fill-rule="nonzero"/>
    </g>
  </g>
  <g clip-path="url(#57b0258685)">
    <g clip-path="url(#0b6460dd5f)">
      <path fill="#6993ff" d="M 76.023438 21.882812 L 298.976562 21.882812 L 298.976562 352.828125 L 76.023438 352.828125 Z M 76.023438 21.882812 " fill-opacity="1" fill-rule="nonzero"/>
    </g>
  </g>
  <g clip-path="url(#4e9db05111)">
    <g clip-path="url(#c777aeb145)">
      <path fill="#6993ff" d="M 76.023438 21.882812 L 298.976562 21.882812 L 298.976562 352.828125 L 76.023438 352.828125 Z M 76.023438 21.882812 " fill-opacity="1" fill-rule="nonzero"/>
    </g>
  </g>
  <g clip-path="url(#2d613dd448)">
    <g clip-path="url(#8fc0ccaaac)">
      <path fill="#6993ff" d="M 76.023438 21.882812 L 298.976562 21.882812 L 298.976562 352.828125 L 76.023438 352.828125 Z M 76.023438 21.882812 " fill-opacity="1" fill-rule="nonzero"/>
    </g>
  </g>
  <g clip-path="url(#107c6f673d)">
    <g clip-path="url(#f324f2209b)">
      <path fill="#6993ff" d="M 76.023438 21.882812 L 298.976562 21.882812 L 298.976562 352.828125 L 76.023438 352.828125 Z M 76.023438 21.882812 " fill-opacity="1" fill-rule="nonzero"/>
    </g>
  </g>
  <g clip-path="url(#6a1ef1fdc0)">
    <g clip-path="url(#903397e027)">
      <path fill="#6993ff" d="M 76.023438 21.882812 L 298.976562 21.882812 L 298.976562 352.828125 L 76.023438 352.828125 Z M 76.023438 21.882812 " fill-opacity="1" fill-rule="nonzero"/>
    </g>
  </g>
</svg>